<svg width="2392" height="2391" viewBox="0 0 2392 2391" fill="none" xmlns="http://www.w3.org/2000/svg">
<path d="M366.564 1195.5L382.345 1224.97L398.415 1254.42L414.768 1283.83L431.399 1313.18L448.302 1342.46L465.47 1371.65L482.898 1400.73L500.579 1429.68L518.507 1458.48L536.676 1487.11L555.079 1515.56L573.71 1543.81L592.562 1571.84L611.629 1599.63L630.903 1627.16L650.378 1654.42L670.046 1681.39L689.902 1708.06L709.937 1734.4L730.146 1760.4L750.519 1786.05L771.051 1811.32L791.734 1836.2L812.56 1860.68L833.523 1884.73L854.615 1908.35L875.827 1931.53L897.154 1954.23L918.587 1976.46L940.118 1998.19L961.74 2019.42L983.446 2040.13L1005.23 2060.3L1027.08 2079.93L1048.98 2099L1070.95 2117.5L1092.95 2135.41L1114.99 2152.73L1137.06 2169.45L1159.16 2185.55L1181.26 2201.03L1203.37 2215.87L1225.48 2230.07L1247.57 2243.61L1269.65 2256.49L1291.71 2268.71L1313.72 2280.24L1335.7 2291.09L1357.63 2301.24L1379.5 2310.7L1401.3 2319.46L1423.03 2327.5L1444.68 2334.83L1466.25 2341.44L1487.71 2347.32L1509.08 2352.48L1530.33 2356.91L1551.46 2360.6L1572.47 2363.56L1593.34 2365.78L1614.07 2367.26L1634.65 2368H1655.08L1675.35 2367.26L1695.44 2365.78L1715.36 2363.56L1735.09 2360.6L1754.63 2356.91L1773.97 2352.48L1793.11 2347.32L1812.03 2341.44L1830.74 2334.83L1849.21 2327.5L1867.46 2319.46L1885.47 2310.7L1903.24 2301.24L1920.75 2291.09L1938 2280.24L1955 2268.71L1971.72 2256.49L1988.17 2243.61L2004.33 2230.07L2020.21 2215.87L2035.79 2201.03L2051.08 2185.55L2066.06 2169.45L2080.74 2152.73L2095.1 2135.41L2109.14 2117.5L2122.85 2099L2136.24 2079.93L2149.29 2060.3L2162 2040.13L2174.37 2019.42L2186.4 1998.19L2198.07 1976.46L2209.38 1954.23L2220.34 1931.53L2230.93 1908.35L2241.15 1884.73L2251 1860.68L2260.48 1836.2L2269.58 1811.32L2278.29 1786.05L2286.63 1760.4L2294.57 1734.4L2302.13 1708.06L2309.29 1681.39L2316.06 1654.42L2322.42 1627.16L2328.39 1599.63L2333.96 1571.84L2339.12 1543.81L2343.88 1515.56L2348.22 1487.11L2352.16 1458.48L2355.69 1429.68L2358.8 1400.73L2361.51 1371.65L2363.79 1342.46L2365.67 1313.18L2367.12 1283.83L2368.17 1254.42L2368.79 1224.97L2369 1195.5L2368.79 1166.03L2368.17 1136.58L2367.12 1107.17L2365.67 1077.82L2363.79 1048.54L2361.51 1019.35L2358.8 990.269L2355.69 961.322L2352.16 932.522L2348.22 903.888L2343.88 875.439L2339.12 847.191L2333.96 819.164L2328.39 791.374L2322.42 763.84L2316.06 736.578L2309.29 709.606L2302.13 682.941L2294.57 656.6L2286.63 630.599L2278.29 604.955L2269.58 579.684L2260.48 554.802L2251 530.325L2241.15 506.267L2230.93 482.645L2220.34 459.474L2209.38 436.767L2198.07 414.539L2186.4 392.805L2174.37 371.578L2162 350.871L2149.29 330.698L2136.24 311.07L2122.85 292.002L2109.14 273.504L2095.1 255.589L2080.74 238.267L2066.06 221.549L2051.08 205.447L2035.79 189.971L2020.21 175.129L2004.33 160.932L1988.17 147.388L1971.72 134.507L1955 122.295L1938 110.761L1920.75 99.9128L1903.24 89.7563L1885.47 80.2982L1867.46 71.5445L1849.21 63.5007L1830.74 56.1718L1812.03 49.5626L1793.11 43.6773L1773.97 38.5194L1754.63 34.0923L1735.09 30.3987L1715.36 27.4411L1695.44 25.2213L1675.35 23.7406L1655.08 23H1634.65L1614.07 23.7406L1593.34 25.2213L1572.47 27.4411L1551.46 30.3987L1530.33 34.0923L1509.08 38.5194L1487.71 43.6773L1466.25 49.5626L1444.68 56.1718L1423.03 63.5007L1401.3 71.5445L1379.5 80.2982L1357.63 89.7563L1335.7 99.9128L1313.72 110.761L1291.71 122.295L1269.65 134.507L1247.57 147.388L1225.48 160.932L1203.37 175.129L1181.26 189.971L1159.16 205.447L1137.06 221.549L1114.99 238.267L1092.95 255.589L1070.95 273.504L1048.98 292.002L1027.08 311.07L1005.23 330.698L983.446 350.871L961.74 371.578L940.118 392.805L918.587 414.539L897.154 436.767L875.827 459.474L854.615 482.645L833.523 506.267L812.56 530.325L791.734 554.802L771.051 579.684L750.519 604.955L730.146 630.599L709.937 656.6L689.902 682.941L670.046 709.606L650.378 736.578L630.903 763.84L611.629 791.374L592.562 819.164L573.71 847.191L555.079 875.439L536.676 903.888L518.507 932.522L500.579 961.322L482.898 990.269L465.47 1019.35L448.302 1048.54L431.399 1077.82L414.768 1107.17L398.415 1136.58L382.345 1166.03L366.564 1195.5ZM366.564 1195.5L351.077 1166.03L335.891 1136.58L321.011 1107.17L306.441 1077.82L292.188 1048.54L278.256 1019.35L264.649 990.269L251.374 961.322L238.434 932.522L225.834 903.888L213.58 875.439L201.674 847.191L190.121 819.164L178.926 791.374L168.092 763.84L157.624 736.578L147.524 709.606L137.797 682.941L128.446 656.6L119.474 630.599L110.884 604.955L102.681 579.684L94.8652 554.802L87.441 530.325L80.4107 506.267L73.7768 482.645L67.5415 459.474L61.7073 436.767L56.276 414.539L51.2496 392.805L46.63 371.578L42.4188 350.871L38.6174 330.698L35.2272 311.07L32.2495 292.002L29.6852 273.504L27.5353 255.589L25.8005 238.267L24.4815 221.549L23.5788 205.447L23.0926 189.971L23.0232 175.129L23.3704 160.932L24.1344 147.388L25.3146 134.507L26.9109 122.295L28.9225 110.761L31.3487 99.9128L34.1887 89.7563L37.4416 80.2982L41.106 71.5445L45.1808 63.5007L49.6645 56.1718L54.5554 49.5626L59.852 43.6773L65.5521 38.5194L71.6539 34.0923L78.1552 30.3987L85.0537 27.4411L92.3469 25.2213L100.032 23.7406L108.107 23H116.568L125.413 23.7406L134.638 25.2213L144.24 27.4411L154.216 30.3987L164.562 34.0923L175.274 38.5194L186.35 43.6773L197.783 49.5626L209.572 56.1718L221.711 63.5007L234.196 71.5445L247.023 80.2982L260.187 89.7563L273.684 99.9128L287.508 110.761L301.655 122.295L316.12 134.507L330.897 147.388L345.982 160.932L361.369 175.129L377.052 189.971L393.026 205.447L409.286 221.549L425.825 238.267L442.638 255.589L459.718 273.504L477.06 292.002L494.657 311.07L512.504 330.698L530.594 350.871L548.919 371.578L567.475 392.805L586.254 414.539L605.25 436.767L624.456 459.474L643.864 482.645L663.469 506.267L683.263 530.325L703.239 554.802L723.391 579.684L743.71 604.955L764.19 630.599L784.823 656.6L805.603 682.941L826.521 709.606L847.57 736.578L868.743 763.84L890.033 791.374L911.431 819.164L932.93 847.191L954.523 875.439L976.202 903.888L997.958 932.522L1019.79 961.322L1041.67 990.269L1063.62 1019.35L1085.61 1048.54L1107.64 1077.82L1129.7 1107.17L1151.79 1136.58L1173.89 1166.03L1196 1195.5M366.564 1195.5L351.077 1224.97L335.891 1254.42L321.011 1283.83L306.441 1313.18L292.188 1342.46L278.256 1371.65L264.649 1400.73L251.374 1429.68L238.434 1458.48L225.834 1487.11L213.58 1515.56L201.674 1543.81L190.121 1571.84L178.926 1599.63L168.092 1627.16L157.624 1654.42L147.524 1681.39L137.797 1708.06L128.446 1734.4L119.474 1760.4L110.884 1786.05L102.681 1811.32L94.8652 1836.2L87.441 1860.68L80.4107 1884.73L73.7768 1908.35L67.5415 1931.53L61.7073 1954.23L56.276 1976.46L51.2496 1998.19L46.63 2019.42L42.4188 2040.13L38.6174 2060.3L35.2272 2079.93L32.2495 2099L29.6852 2117.5L27.5353 2135.41L25.8005 2152.73L24.4815 2169.45L23.5788 2185.55L23.0926 2201.03L23.0232 2215.87L23.3704 2230.07L24.1344 2243.61L25.3146 2256.49L26.9109 2268.71L28.9225 2280.24L31.3487 2291.09L34.1887 2301.24L37.4416 2310.7L41.106 2319.46L45.1808 2327.5L49.6645 2334.83L54.5554 2341.44L59.852 2347.32L65.5521 2352.48L71.6539 2356.91L78.1552 2360.6L85.0537 2363.56L92.3469 2365.78L100.032 2367.26L108.107 2368H116.568L125.413 2367.26L134.638 2365.78L144.24 2363.56L154.216 2360.6L164.562 2356.91L175.274 2352.48L186.35 2347.32L197.783 2341.44L209.572 2334.83L221.711 2327.5L234.196 2319.46L247.023 2310.7L260.187 2301.24L273.684 2291.09L287.508 2280.24L301.655 2268.71L316.12 2256.49L330.897 2243.61L345.982 2230.07L361.369 2215.87L377.052 2201.03L393.026 2185.55L409.286 2169.45L425.825 2152.73L442.638 2135.41L459.718 2117.5L477.06 2099L494.657 2079.93L512.504 2060.3L530.594 2040.13L548.919 2019.42L567.475 1998.19L586.254 1976.46L605.25 1954.23L624.456 1931.53L643.864 1908.35L663.469 1884.73L683.263 1860.68L703.239 1836.2L723.391 1811.32L743.71 1786.05L764.19 1760.4L784.823 1734.4L805.603 1708.06L826.521 1681.39L847.57 1654.42L868.743 1627.16L890.033 1599.63L911.431 1571.84L932.93 1543.81L954.523 1515.56L976.202 1487.11L997.958 1458.48L1019.79 1429.68L1041.67 1400.73L1063.62 1371.65L1085.61 1342.46L1107.64 1313.18L1129.7 1283.83L1151.79 1254.42L1173.89 1224.97L1196 1195.5M1196 1195.5L1218.11 1224.97L1240.21 1254.42L1262.3 1283.83L1284.36 1313.18L1306.39 1342.46L1328.38 1371.65L1350.32 1400.73L1372.21 1429.68L1394.04 1458.48L1415.8 1487.11L1437.48 1515.56L1459.07 1543.81L1480.57 1571.84L1501.97 1599.63L1523.26 1627.16L1544.43 1654.42L1565.48 1681.39L1586.4 1708.06L1607.18 1734.4L1627.81 1760.4L1648.29 1786.05L1668.61 1811.32L1688.76 1836.2L1708.74 1860.68L1728.53 1884.73L1748.14 1908.35L1767.54 1931.53L1786.75 1954.23L1805.75 1976.46L1824.52 1998.19L1843.08 2019.42L1861.41 2040.13L1879.5 2060.3L1897.34 2079.93L1914.94 2099L1932.28 2117.5L1949.36 2135.41L1966.17 2152.73L1982.71 2169.45L1998.97 2185.55L2014.95 2201.03L2030.63 2215.87L2046.02 2230.07L2061.1 2243.61L2075.88 2256.49L2090.34 2268.71L2104.49 2280.24L2118.32 2291.09L2131.81 2301.24L2144.98 2310.7L2157.8 2319.46L2170.29 2327.5L2182.43 2334.83L2194.22 2341.44L2205.65 2347.32L2216.73 2352.48L2227.44 2356.91L2237.78 2360.6L2247.76 2363.56L2257.36 2365.78L2266.59 2367.26L2275.43 2368H2283.89L2291.97 2367.26L2299.65 2365.78L2306.95 2363.56L2313.84 2360.6L2320.35 2356.91L2326.45 2352.48L2332.15 2347.32L2337.44 2341.44L2342.34 2334.83L2346.82 2327.5L2350.89 2319.46L2354.56 2310.7L2357.81 2301.24L2360.65 2291.09L2363.08 2280.24L2365.09 2268.71L2366.69 2256.49L2367.87 2243.61L2368.63 2230.07L2368.98 2215.87L2368.91 2201.03L2368.42 2185.55L2367.52 2169.45L2366.2 2152.73L2364.46 2135.41L2362.31 2117.5L2359.75 2099L2356.77 2079.93L2353.38 2060.3L2349.58 2040.13L2345.37 2019.42L2340.75 1998.19L2335.72 1976.46L2330.29 1954.23L2324.46 1931.53L2318.22 1908.35L2311.59 1884.73L2304.56 1860.68L2297.13 1836.2L2289.32 1811.32L2281.12 1786.05L2272.53 1760.4L2263.55 1734.4L2254.2 1708.06L2244.48 1681.39L2234.38 1654.42L2223.91 1627.16L2213.07 1599.63L2201.88 1571.84L2190.33 1543.81L2178.42 1515.56L2166.17 1487.11L2153.57 1458.48L2140.63 1429.68L2127.35 1400.73L2113.74 1371.65L2099.81 1342.46L2085.56 1313.18L2070.99 1283.83L2056.11 1254.42L2040.92 1224.97L2025.44 1195.5M1196 1195.5L1218.11 1166.03L1240.21 1136.58L1262.3 1107.17L1284.36 1077.82L1306.39 1048.54L1328.38 1019.35L1350.32 990.269L1372.21 961.322L1394.04 932.522L1415.8 903.888L1437.48 875.439L1459.07 847.191L1480.57 819.164L1501.97 791.374L1523.26 763.84L1544.43 736.578L1565.48 709.606L1586.4 682.941L1607.18 656.6L1627.81 630.599L1648.29 604.955L1668.61 579.684L1688.76 554.802L1708.74 530.325L1728.53 506.267L1748.14 482.645L1767.54 459.474L1786.75 436.767L1805.75 414.539L1824.52 392.805L1843.08 371.578L1861.41 350.871L1879.5 330.698L1897.34 311.07L1914.94 292.002L1932.28 273.504L1949.36 255.589L1966.17 238.267L1982.71 221.549L1998.97 205.447L2014.95 189.971L2030.63 175.129L2046.02 160.932L2061.1 147.388L2075.88 134.507L2090.34 122.295L2104.49 110.761L2118.32 99.9128L2131.81 89.7563L2144.98 80.2982L2157.8 71.5445L2170.29 63.5007L2182.43 56.1718L2194.22 49.5626L2205.65 43.6773L2216.73 38.5194L2227.44 34.0923L2237.78 30.3987L2247.76 27.4411L2257.36 25.2213L2266.59 23.7406L2275.43 23H2283.89L2291.97 23.7406L2299.65 25.2213L2306.95 27.4411L2313.84 30.3987L2320.35 34.0923L2326.45 38.5194L2332.15 43.6773L2337.44 49.5626L2342.34 56.1718L2346.82 63.5007L2350.89 71.5445L2354.56 80.2982L2357.81 89.7563L2360.65 99.9128L2363.08 110.761L2365.09 122.295L2366.69 134.507L2367.87 147.388L2368.63 160.932L2368.98 175.129L2368.91 189.971L2368.42 205.447L2367.52 221.549L2366.2 238.267L2364.46 255.589L2362.31 273.504L2359.75 292.002L2356.77 311.07L2353.38 330.698L2349.58 350.871L2345.37 371.578L2340.75 392.805L2335.72 414.539L2330.29 436.767L2324.46 459.474L2318.22 482.645L2311.59 506.267L2304.56 530.325L2297.13 554.802L2289.32 579.684L2281.12 604.955L2272.53 630.599L2263.55 656.6L2254.2 682.941L2244.48 709.606L2234.38 736.578L2223.91 763.84L2213.07 791.374L2201.88 819.164L2190.33 847.191L2178.42 875.439L2166.17 903.888L2153.57 932.522L2140.63 961.322L2127.35 990.269L2113.74 1019.35L2099.81 1048.54L2085.56 1077.82L2070.99 1107.17L2056.11 1136.58L2040.92 1166.03L2025.44 1195.5M2025.44 1195.5L2009.66 1166.03L1993.59 1136.58L1977.23 1107.17L1960.6 1077.82L1943.7 1048.54L1926.53 1019.35L1909.1 990.269L1891.42 961.322L1873.49 932.522L1855.32 903.888L1836.92 875.439L1818.29 847.191L1799.44 819.164L1780.37 791.374L1761.1 763.84L1741.62 736.578L1721.95 709.606L1702.1 682.941L1682.06 656.6L1661.85 630.599L1641.48 604.955L1620.95 579.684L1600.27 554.802L1579.44 530.325L1558.48 506.267L1537.39 482.645L1516.17 459.474L1494.85 436.767L1473.41 414.539L1451.88 392.805L1430.26 371.578L1408.55 350.871L1386.77 330.698L1364.92 311.07L1343.02 292.002L1321.05 273.504L1299.05 255.589L1277.01 238.267L1254.94 221.549L1232.84 205.447L1210.74 189.971L1188.63 175.129L1166.52 160.932L1144.43 147.388L1122.35 134.507L1100.29 122.295L1078.28 110.761L1056.3 99.9128L1034.37 89.7563L1012.5 80.2982L990.698 71.5445L968.966 63.5007L947.316 56.1718L925.753 49.5626L904.287 43.6773L882.924 38.5194L861.672 34.0923L840.54 30.3987L819.533 27.4411L798.66 25.2213L777.929 23.7406L757.346 23H736.919L716.655 23.7406L696.561 25.2213L676.645 27.4411L656.913 30.3987L637.373 34.0923L618.031 38.5194L598.894 43.6773L579.97 49.5626L561.265 56.1718L542.785 63.5007L524.537 71.5445L506.528 80.2982L488.764 89.7563L471.251 99.9128L453.995 110.761L437.003 122.295L420.281 134.507L403.835 147.388L387.669 160.932L371.792 175.129L356.206 189.971L340.92 205.447L325.937 221.549L311.263 238.267L296.904 255.589L282.864 273.504L269.148 292.002L255.762 311.07L242.71 330.698L229.996 350.871L217.626 371.578L205.603 392.805L193.933 414.539L182.618 436.767L171.663 459.474L161.072 482.645L150.849 506.267L140.998 530.325L131.521 554.802L122.422 579.684L113.705 604.955L105.372 630.599L97.427 656.6L89.8721 682.941L82.7102 709.606L75.9439 736.578L69.5755 763.84L63.6073 791.374L58.0415 819.164L52.88 847.191L48.1246 875.439L43.7771 903.888L39.8389 932.522L36.3115 961.322L33.1961 990.269L30.4939 1019.35L28.2058 1048.54L26.3326 1077.82L24.875 1107.17L23.8334 1136.58L23.2084 1166.03L23 1195.5L23.2084 1224.97L23.8334 1254.42L24.875 1283.83L26.3326 1313.18L28.2058 1342.46L30.4939 1371.65L33.1961 1400.73L36.3115 1429.68L39.8389 1458.48L43.7771 1487.11L48.1246 1515.56L52.88 1543.81L58.0415 1571.84L63.6073 1599.63L69.5755 1627.16L75.9439 1654.42L82.7102 1681.39L89.8721 1708.06L97.427 1734.4L105.372 1760.4L113.705 1786.05L122.422 1811.32L131.521 1836.2L140.998 1860.68L150.849 1884.73L161.072 1908.35L171.663 1931.53L182.618 1954.23L193.933 1976.46L205.603 1998.19L217.626 2019.42L229.996 2040.13L242.71 2060.3L255.762 2079.93L269.148 2099L282.864 2117.5L296.904 2135.41L311.263 2152.73L325.937 2169.45L340.92 2185.55L356.206 2201.03L371.792 2215.87L387.669 2230.07L403.835 2243.61L420.281 2256.49L437.003 2268.71L453.995 2280.24L471.251 2291.09L488.764 2301.24L506.528 2310.7L524.537 2319.46L542.785 2327.5L561.265 2334.83L579.97 2341.44L598.894 2347.32L618.031 2352.48L637.373 2356.91L656.913 2360.6L676.645 2363.56L696.561 2365.78L716.655 2367.26L736.919 2368H757.346L777.929 2367.26L798.66 2365.78L819.533 2363.56L840.54 2360.6L861.672 2356.91L882.924 2352.48L904.287 2347.32L925.753 2341.44L947.316 2334.83L968.966 2327.5L990.698 2319.46L1012.5 2310.7L1034.37 2301.24L1056.3 2291.09L1078.28 2280.24L1100.29 2268.71L1122.35 2256.49L1144.43 2243.61L1166.52 2230.07L1188.63 2215.87L1210.74 2201.03L1232.84 2185.55L1254.94 2169.45L1277.01 2152.73L1299.05 2135.41L1321.05 2117.5L1343.02 2099L1364.92 2079.93L1386.77 2060.3L1408.55 2040.13L1430.26 2019.42L1451.88 1998.19L1473.41 1976.46L1494.85 1954.23L1516.17 1931.53L1537.39 1908.35L1558.48 1884.73L1579.44 1860.68L1600.27 1836.2L1620.95 1811.32L1641.48 1786.05L1661.85 1760.4L1682.06 1734.4L1702.1 1708.06L1721.95 1681.39L1741.62 1654.42L1761.1 1627.16L1780.37 1599.63L1799.44 1571.84L1818.29 1543.81L1836.92 1515.56L1855.32 1487.11L1873.49 1458.48L1891.42 1429.68L1909.1 1400.73L1926.53 1371.65L1943.7 1342.46L1960.6 1313.18L1977.23 1283.83L1993.59 1254.42L2009.66 1224.97L2025.44 1195.5Z" stroke="black" stroke-width="46"/>
</svg>
